<svg height="24" preserveAspectRatio="xMinYMin" viewBox="-2 -2 24 24" width="24" xmlns="http://www.w3.org/2000/svg"><path d="m12.923 6.526h-5.846c-1.147 0-2.077.92-2.077 2.054v2.89c0 1.135.93 2.054 2.077 2.054h5.846c1.147 0 2.077-.92 2.077-2.054v-2.89c0-1.135-.93-2.054-2.077-2.054zm-1.404 3.64-2.735 1.29a.11.11 0 0 1 -.157-.099v-2.66a.11.11 0 0 1 .16-.097l2.734 1.37c.081.042.08.157-.002.196z"/><path d="m4 2a2 2 0 0 0 -2 2v12a2 2 0 0 0 2 2h12a2 2 0 0 0 2-2v-12a2 2 0 0 0 -2-2zm0-2h12a4 4 0 0 1 4 4v12a4 4 0 0 1 -4 4h-12a4 4 0 0 1 -4-4v-12a4 4 0 0 1 4-4z"/></svg>